<?xml version="1.0" encoding="utf-8"?>
<!-- Generator: Adobe Illustrator 24.0.2, SVG Export Plug-In . SVG Version: 6.00 Build 0)  -->
<svg version="1.1" id="Capa_1" xmlns="http://www.w3.org/2000/svg" xmlns:xlink="http://www.w3.org/1999/xlink" x="0px" y="0px"
	 viewBox="0 0 1500 1500" style="enable-background:new 0 0 1500 1500;" xml:space="preserve">
<style type="text/css">
	.st0{fill:url(#SVGID_1_);}
	.st1{fill:url(#SVGID_2_);}
	.st2{fill:url(#SVGID_3_);}
	.st3{fill:url(#SVGID_4_);}
</style>
<g>
	<linearGradient id="SVGID_1_" gradientUnits="userSpaceOnUse" x1="603.6212" y1="519.1343" x2="1037.5" y2="519.1343">
		<stop  offset="0" style="stop-color:#00EEFF"/>
		<stop  offset="1" style="stop-color:#7C30FF"/>
	</linearGradient>
	<path class="st0" d="M1036.88,353.9L1036.88,353.9c-8.91-17.74-114.92-10.08-186.4-15.13c-2.19-0.15-3.59,2.44-2.59,4.66
		l17.17,38.11L614.87,546.57c-14.24,9.4-10.95,24.78-10.87,46.45l2.51,96.07c8.23,16.25,19.85,10.88,34.09,1.48l274.52-182.6
		c1.91-1.26,3.55-2.66,5-4.18l14.26,31.66c1,2.22,3.66,2.45,4.83,0.33C972.04,476.25,1044.93,369.92,1036.88,353.9z"/>
	<linearGradient id="SVGID_2_" gradientUnits="userSpaceOnUse" x1="663.9536" y1="1161.2363" x2="663.9536" y2="801.6014">
		<stop  offset="0" style="stop-color:#00EEFF"/>
		<stop  offset="1" style="stop-color:#7C30FF"/>
	</linearGradient>
	<path class="st1" d="M723.67,801.6l1.49,279.73c0.04,18.78-13.26,23.26-29.71,34.08l-74.02,45.82
		c-16.45,0.05-18.22-14.12-18.26-32.9l-0.42-323.48"/>
	<linearGradient id="SVGID_3_" gradientUnits="userSpaceOnUse" x1="462.5" y1="811.556" x2="1012.9009" y2="811.556">
		<stop  offset="0" style="stop-color:#00EEFF"/>
		<stop  offset="1" style="stop-color:#7C30FF"/>
	</linearGradient>
	<path class="st2" d="M1012.28,608.09L1012.28,608.09c-8.91-17.74-114.92-10.08-186.4-15.13c-2.19-0.15-3.59,2.44-2.59,4.66
		l17.17,38.11L473.75,877.23c-14.24,9.4-10.95,24.78-10.87,46.45l2.51,96.07c8.23,16.25,19.85,10.88,34.09,1.48l391.04-259.06
		c1.91-1.26,3.55-2.66,5-4.18l14.26,31.66c1,2.22,3.66,2.45,4.83,0.33C947.44,730.44,1020.33,624.11,1012.28,608.09z"/>
	<linearGradient id="SVGID_4_" gradientUnits="userSpaceOnUse" x1="658.2137" y1="414.6517" x2="658.2137" y2="414.6517">
		<stop  offset="0" style="stop-color:#00EEFF"/>
		<stop  offset="1" style="stop-color:#7C30FF"/>
	</linearGradient>
	<path class="st3" d="M658.21,414.65"/>
</g>
</svg>
