<?xml version="1.0" encoding="utf-8"?>
<!-- Generator: Adobe Illustrator 24.0.2, SVG Export Plug-In . SVG Version: 6.00 Build 0)  -->
<svg version="1.1" id="Capa_1" xmlns="http://www.w3.org/2000/svg" xmlns:xlink="http://www.w3.org/1999/xlink" x="0px" y="0px"
	 viewBox="0 0 1500 1500" style="enable-background:new 0 0 1500 1500;" xml:space="preserve">
<style type="text/css">
	.st0{display:none;}
	.st1{display:inline;fill:url(#SVGID_1_);}
	.st2{display:inline;fill:url(#SVGID_2_);}
	.st3{display:inline;fill:url(#SVGID_3_);}
	.st4{display:inline;fill:url(#SVGID_4_);}
	.st5{display:inline;fill:#000023;}
	.st6{display:inline;fill:url(#SVGID_5_);}
	.st7{display:inline;fill:url(#SVGID_6_);}
	.st8{fill:url(#SVGID_7_);}
	.st9{fill:url(#SVGID_8_);}
	.st10{fill:url(#SVGID_9_);}
	.st11{fill:url(#SVGID_10_);}
	.st12{fill:#FFFFFF;}
</style>
<g class="st0">
	<linearGradient id="SVGID_1_" gradientUnits="userSpaceOnUse" x1="603.6212" y1="519.1343" x2="1037.5" y2="519.1343">
		<stop  offset="0" style="stop-color:#00EEFF"/>
		<stop  offset="1" style="stop-color:#7C30FF"/>
	</linearGradient>
	<path class="st1" d="M1036.88,353.9L1036.88,353.9c-8.91-17.74-114.92-10.08-186.4-15.13c-2.19-0.15-3.59,2.44-2.59,4.66
		l17.17,38.11L614.87,546.57c-14.24,9.4-10.95,24.78-10.87,46.45l2.51,96.07c8.23,16.25,19.85,10.88,34.09,1.48l274.52-182.6
		c1.91-1.26,3.55-2.66,5-4.18l14.26,31.66c1,2.22,3.66,2.45,4.83,0.33C972.04,476.25,1044.93,369.92,1036.88,353.9z"/>
	<linearGradient id="SVGID_2_" gradientUnits="userSpaceOnUse" x1="663.9536" y1="1161.2363" x2="663.9536" y2="801.6014">
		<stop  offset="0" style="stop-color:#00EEFF"/>
		<stop  offset="1" style="stop-color:#7C30FF"/>
	</linearGradient>
	<path class="st2" d="M723.67,801.6l1.49,279.73c0.04,18.78-13.26,23.26-29.71,34.08l-74.02,45.82
		c-16.45,0.05-18.22-14.12-18.26-32.9l-0.42-323.48"/>
	<linearGradient id="SVGID_3_" gradientUnits="userSpaceOnUse" x1="462.5" y1="811.556" x2="1012.9009" y2="811.556">
		<stop  offset="0" style="stop-color:#00EEFF"/>
		<stop  offset="1" style="stop-color:#7C30FF"/>
	</linearGradient>
	<path class="st3" d="M1012.28,608.09L1012.28,608.09c-8.91-17.74-114.92-10.08-186.4-15.13c-2.19-0.15-3.59,2.44-2.59,4.66
		l17.17,38.11L473.75,877.23c-14.24,9.4-10.95,24.78-10.87,46.45l2.51,96.07c8.23,16.25,19.85,10.88,34.09,1.48l391.04-259.06
		c1.91-1.26,3.55-2.66,5-4.18l14.26,31.66c1,2.22,3.66,2.45,4.83,0.33C947.44,730.44,1020.33,624.11,1012.28,608.09z"/>
	<linearGradient id="SVGID_4_" gradientUnits="userSpaceOnUse" x1="658.2137" y1="414.6517" x2="658.2137" y2="414.6517">
		<stop  offset="0" style="stop-color:#00EEFF"/>
		<stop  offset="1" style="stop-color:#7C30FF"/>
	</linearGradient>
	<path class="st4" d="M658.21,414.65"/>
</g>
<g class="st0">
	<path class="st5" d="M1036.88,353.9L1036.88,353.9c-8.91-17.74-114.92-10.08-186.4-15.13c-2.19-0.15-3.59,2.44-2.59,4.66
		l17.17,38.11L614.87,546.57c-14.24,9.4-10.95,24.78-10.87,46.45l2.51,96.07c8.23,16.25,19.85,10.88,34.09,1.48l274.52-182.6
		c1.91-1.26,3.55-2.66,5-4.18l14.26,31.66c1,2.22,3.66,2.45,4.83,0.33C972.04,476.25,1044.93,369.92,1036.88,353.9z"/>
	<linearGradient id="SVGID_5_" gradientUnits="userSpaceOnUse" x1="712.7164" y1="1133.3274" x2="611.4771" y2="802.1887">
		<stop  offset="0" style="stop-color:#000023"/>
		<stop  offset="0.1765" style="stop-color:#030327;stop-opacity:0.8235"/>
		<stop  offset="0.3536" style="stop-color:#0E0A33;stop-opacity:0.6464"/>
		<stop  offset="0.531" style="stop-color:#1F1747;stop-opacity:0.469"/>
		<stop  offset="0.7088" style="stop-color:#372963;stop-opacity:0.2912"/>
		<stop  offset="0.8851" style="stop-color:#554087;stop-opacity:0.1149"/>
		<stop  offset="1" style="stop-color:#6D52A3;stop-opacity:0"/>
	</linearGradient>
	<path class="st6" d="M723.67,801.6l1.49,279.73c0.04,18.78-13.26,23.26-29.71,34.08l-74.02,45.82
		c-16.45,0.05-18.22-14.12-18.26-32.9l-0.42-323.48"/>
	<path class="st5" d="M1012.28,608.09L1012.28,608.09c-8.91-17.74-114.92-10.08-186.4-15.13c-2.19-0.15-3.59,2.44-2.59,4.66
		l17.17,38.11L473.75,877.23c-14.24,9.4-10.95,24.78-10.87,46.45l2.51,96.07c8.23,16.25,19.85,10.88,34.09,1.48l391.04-259.06
		c1.91-1.26,3.55-2.66,5-4.18l14.26,31.66c1,2.22,3.66,2.45,4.83,0.33C947.44,730.44,1020.33,624.11,1012.28,608.09z"/>
	<linearGradient id="SVGID_6_" gradientUnits="userSpaceOnUse" x1="658.2137" y1="414.6517" x2="658.2137" y2="414.6517">
		<stop  offset="0" style="stop-color:#00EEFF"/>
		<stop  offset="1" style="stop-color:#7C30FF"/>
	</linearGradient>
	<path class="st7" d="M658.21,414.65"/>
</g>
<g>
	<g>
		<linearGradient id="SVGID_7_" gradientUnits="userSpaceOnUse" x1="262.7089" y1="647.4116" x2="455.5089" y2="647.4116">
			<stop  offset="0" style="stop-color:#00EEFF"/>
			<stop  offset="1" style="stop-color:#7C30FF"/>
		</linearGradient>
		<path class="st8" d="M455.24,573.99L455.24,573.99c-3.96-7.88-51.07-4.48-82.83-6.73c-0.97-0.07-1.59,1.08-1.15,2.07l7.63,16.94
			L267.71,659.6c-6.33,4.18-4.86,11.01-4.83,20.64l1.12,42.69c3.66,7.22,8.82,4.83,15.15,0.66l121.99-81.14
			c0.85-0.56,1.58-1.18,2.22-1.86l6.34,14.07c0.45,0.99,1.63,1.09,2.15,0.15C426.42,628.36,458.81,581.11,455.24,573.99z"/>
		<linearGradient id="SVGID_8_" gradientUnits="userSpaceOnUse" x1="289.5184" y1="932.7386" x2="289.5184" y2="772.9297">
			<stop  offset="0" style="stop-color:#00EEFF"/>
			<stop  offset="1" style="stop-color:#7C30FF"/>
		</linearGradient>
		<path class="st9" d="M316.05,772.93l0.66,124.3c0.02,8.34-5.89,10.34-13.2,15.14l-32.89,20.36c-7.31,0.02-8.1-6.28-8.11-14.62
			l-0.19-143.74"/>
		<linearGradient id="SVGID_9_" gradientUnits="userSpaceOnUse" x1="199.9997" y1="777.3533" x2="444.578" y2="777.3533">
			<stop  offset="0" style="stop-color:#00EEFF"/>
			<stop  offset="1" style="stop-color:#7C30FF"/>
		</linearGradient>
		<path class="st10" d="M444.3,686.94L444.3,686.94c-3.96-7.88-51.07-4.48-82.83-6.73c-0.97-0.07-1.59,1.08-1.15,2.07l7.63,16.94
			L205,806.54c-6.33,4.18-4.86,11.01-4.83,20.64l1.12,42.69c3.66,7.22,8.82,4.83,15.15,0.66L390.2,755.4
			c0.85-0.56,1.58-1.18,2.22-1.86l6.34,14.07c0.45,0.99,1.63,1.09,2.15,0.15C415.49,741.31,447.88,694.06,444.3,686.94z"/>
		<linearGradient id="SVGID_10_" gradientUnits="userSpaceOnUse" x1="286.9678" y1="600.9833" x2="286.9678" y2="600.9833">
			<stop  offset="0" style="stop-color:#00EEFF"/>
			<stop  offset="1" style="stop-color:#7C30FF"/>
		</linearGradient>
		<path class="st11" d="M286.97,600.98"/>
	</g>
	<g>
		<path class="st12" d="M522.69,742.27v28.26h62.52v26.02h-62.52v50.72h-28.82V716.25h99.76v26.02H522.69z"/>
		<path class="st12" d="M664.94,847.27v-10.86c-3.49,3.87-7.67,6.96-12.54,9.27c-4.87,2.31-10.79,3.46-17.78,3.46
			c-4.74,0-9.2-0.65-13.38-1.97c-4.18-1.31-7.83-3.28-10.95-5.9c-3.12-2.62-5.59-5.83-7.39-9.64c-1.81-3.8-2.71-8.2-2.71-13.2v-0.37
			c0-5.49,1-10.23,2.99-14.23c1.99-3.99,4.77-7.3,8.33-9.92c3.56-2.62,7.8-4.59,12.73-5.9c4.93-1.31,10.39-1.97,16.38-1.97
			c5.12,0,9.58,0.37,13.38,1.12c3.81,0.75,7.52,1.75,11.14,2.99v-1.68c0-5.99-1.81-10.54-5.43-13.66c-3.62-3.12-8.98-4.68-16.1-4.68
			c-5.49,0-10.33,0.47-14.51,1.4c-4.18,0.94-8.58,2.28-13.2,4.02l-7.11-21.71c5.49-2.37,11.23-4.31,17.22-5.8
			c5.99-1.5,13.22-2.25,21.71-2.25c15.6,0,26.95,3.81,34.06,11.42c7.11,7.61,10.67,18.22,10.67,31.82v58.21H664.94z M665.5,806.84
			c-2.5-1.12-5.27-2.03-8.33-2.71c-3.06-0.68-6.33-1.03-9.83-1.03c-6.12,0-10.92,1.19-14.41,3.56c-3.49,2.37-5.24,5.8-5.24,10.29
			v0.37c0,3.87,1.43,6.86,4.3,8.98c2.87,2.12,6.61,3.18,11.23,3.18c6.74,0,12.13-1.62,16.19-4.87c4.05-3.24,6.08-7.49,6.08-12.73
			V806.84z"/>
		<path class="st12" d="M781.17,844.37c-6.24,3.43-14.35,5.15-24.33,5.15c-7.49,0-14.44-1.37-20.87-4.12
			c-6.43-2.74-11.95-6.46-16.56-11.14c-4.62-4.68-8.24-10.17-10.86-16.47c-2.62-6.3-3.93-13.01-3.93-20.12v-0.37
			c0-7.11,1.31-13.85,3.93-20.21c2.62-6.36,6.24-11.91,10.86-16.66c4.61-4.74,10.14-8.48,16.56-11.23
			c6.43-2.74,13.51-4.12,21.24-4.12c9.48,0,17.34,1.5,23.58,4.49c6.24,2.99,11.73,7.11,16.47,12.35l-17.41,18.72
			c-3.25-3.37-6.58-6.05-10.01-8.05c-3.43-1.99-7.71-2.99-12.82-2.99c-3.62,0-6.9,0.72-9.83,2.15c-2.93,1.44-5.49,3.4-7.67,5.9
			c-2.18,2.5-3.87,5.4-5.05,8.7c-1.19,3.31-1.78,6.83-1.78,10.58v0.37c0,3.87,0.59,7.49,1.78,10.86c1.18,3.37,2.9,6.3,5.15,8.8
			c2.25,2.5,4.93,4.46,8.05,5.9c3.12,1.44,6.61,2.15,10.48,2.15c4.74,0,8.89-0.96,12.45-2.9c3.56-1.93,7.08-4.52,10.58-7.77
			l16.66,16.85C792.96,836.54,787.41,840.94,781.17,844.37z"/>
		<path class="st12" d="M855.29,847.36c-3.62,1.06-7.8,1.59-12.54,1.59c-4.37,0-8.33-0.47-11.89-1.4c-3.56-0.94-6.62-2.59-9.17-4.96
			c-2.56-2.37-4.56-5.46-5.99-9.27c-1.44-3.8-2.15-8.64-2.15-14.51v-47.54h-11.98v-24.33h11.98V721.3H842v25.64h23.58v24.33H842
			v42.86c0,6.49,3.06,9.73,9.17,9.73c4.99,0,9.67-1.18,14.04-3.56v22.83C862.21,844.9,858.91,846.31,855.29,847.36z"/>
		<path class="st12" d="M978.63,817.6c-2.75,6.3-6.55,11.82-11.42,16.56c-4.87,4.74-10.61,8.49-17.22,11.23
			c-6.62,2.74-13.85,4.12-21.71,4.12c-7.74,0-14.91-1.34-21.52-4.02c-6.62-2.68-12.32-6.36-17.13-11.04
			c-4.8-4.68-8.58-10.17-11.32-16.47c-2.75-6.3-4.12-13.07-4.12-20.31v-0.37c0-7.24,1.37-14.01,4.12-20.31
			c2.74-6.3,6.55-11.82,11.42-16.56c4.87-4.74,10.6-8.48,17.22-11.23c6.61-2.74,13.85-4.12,21.71-4.12c7.74,0,14.91,1.34,21.53,4.02
			c6.61,2.68,12.32,6.36,17.13,11.04c4.8,4.68,8.58,10.17,11.32,16.47c2.74,6.3,4.12,13.07,4.12,20.31v0.37
			C982.75,804.53,981.38,811.3,978.63,817.6z M954.67,797.3c0-3.74-0.63-7.27-1.87-10.58c-1.25-3.31-3.06-6.24-5.43-8.8
			c-2.37-2.56-5.18-4.59-8.42-6.08c-3.25-1.5-6.8-2.25-10.67-2.25c-4.12,0-7.77,0.72-10.95,2.15c-3.18,1.44-5.9,3.4-8.14,5.9
			c-2.25,2.5-3.96,5.4-5.15,8.7c-1.19,3.31-1.78,6.83-1.78,10.58v0.37c0,3.74,0.62,7.27,1.87,10.58c1.25,3.31,3.06,6.24,5.43,8.8
			c2.37,2.56,5.15,4.59,8.33,6.08c3.18,1.5,6.77,2.25,10.76,2.25c4.12,0,7.77-0.72,10.95-2.15c3.18-1.43,5.9-3.4,8.14-5.9
			c2.25-2.49,3.96-5.4,5.15-8.7c1.18-3.3,1.78-6.83,1.78-10.58V797.3z"/>
		<path class="st12" d="M1054.81,774.83c-9.48,0-16.94,2.87-22.37,8.61c-5.43,5.74-8.14,14.66-8.14,26.77v37.06h-28.45V746.95h28.45
			v20.21c2.87-6.86,6.8-12.35,11.79-16.47c4.99-4.12,11.73-5.99,20.21-5.62v29.76H1054.81z"/>
		<path class="st12" d="M1098.42,742.27v28.26h62.52v26.02h-62.52v50.72h-28.82V716.25h99.76v26.02H1098.42z"/>
		<path class="st12" d="M1289.52,835.85c-3.62,2.87-7.58,5.33-11.89,7.39c-4.3,2.06-9.02,3.62-14.13,4.68
			c-5.12,1.06-10.86,1.59-17.22,1.59c-9.61,0-18.53-1.75-26.76-5.24c-8.24-3.49-15.35-8.27-21.34-14.32
			c-5.99-6.05-10.67-13.2-14.04-21.43c-3.37-8.24-5.05-17.03-5.05-26.39v-0.37c0-9.36,1.68-18.12,5.05-26.3
			c3.37-8.17,8.05-15.35,14.04-21.52c5.99-6.18,13.16-11.04,21.52-14.6c8.36-3.56,17.59-5.33,27.7-5.33c6.11,0,11.7,0.5,16.75,1.5
			c5.05,1,9.64,2.37,13.76,4.12c4.12,1.75,7.92,3.87,11.42,6.36c3.49,2.5,6.74,5.24,9.73,8.24l-18.34,21.15
			c-5.12-4.61-10.33-8.24-15.63-10.86c-5.31-2.62-11.26-3.93-17.88-3.93c-5.49,0-10.58,1.06-15.25,3.18
			c-4.68,2.12-8.7,5.05-12.07,8.8c-3.37,3.74-5.99,8.08-7.86,13.01c-1.87,4.93-2.81,10.2-2.81,15.82v0.37
			c0,5.62,0.94,10.92,2.81,15.91c1.87,4.99,4.46,9.36,7.77,13.1c3.3,3.74,7.3,6.71,11.98,8.89c4.68,2.18,9.83,3.28,15.44,3.28
			c7.49,0,13.82-1.37,19-4.12c5.18-2.74,10.32-6.49,15.44-11.23l18.34,18.53C1296.63,829.74,1293.14,832.98,1289.52,835.85z"/>
	</g>
</g>
</svg>
