<?xml version="1.0" encoding="UTF-8"?>
<svg width="1100px" height="366px" viewBox="0 0 1100 366" version="1.1" xmlns="http://www.w3.org/2000/svg" xmlns:xlink="http://www.w3.org/1999/xlink">
    <title>Group</title>
    <defs>
        <linearGradient x1="-0.0013972037%" y1="50.0033607%" x2="99.9979835%" y2="50.0033607%" id="linearGradient-1">
            <stop stop-color="#00EEFF" offset="0%"></stop>
            <stop stop-color="#7C30FF" offset="100%"></stop>
        </linearGradient>
        <linearGradient x1="50.0062046%" y1="100.005352%" x2="50.0062046%" y2="-0.000187734613%" id="linearGradient-2">
            <stop stop-color="#00EEFF" offset="0%"></stop>
            <stop stop-color="#7C30FF" offset="100%"></stop>
        </linearGradient>
        <linearGradient x1="-0.000774340594%" y1="50.0010742%" x2="100.00153%" y2="50.0010742%" id="linearGradient-3">
            <stop stop-color="#00EEFF" offset="0%"></stop>
            <stop stop-color="#7C30FF" offset="100%"></stop>
        </linearGradient>
    </defs>
    <g id="Page-1" stroke="none" stroke-width="1" fill="none" fill-rule="evenodd">
        <g id="logotipo-gradiente-black" transform="translate(0.001594, -228.236224)" fill-rule="nonzero">
            <g id="Group" transform="translate(0.000000, 228.493178)">
                <g transform="translate(-0.000000, 0.000000)" id="Path">
                    <path d="M255.238406,6.7330457 L255.238406,6.7330457 C251.278406,-1.1469543 204.168406,2.2530457 172.408406,0.00304569882 C171.438406,-0.0669543012 170.818406,1.0830457 171.258406,2.0730457 L178.888406,19.0130457 L67.7084062,92.3430457 C61.3784062,96.5230457 62.8484062,103.353046 62.8784062,112.983046 L63.9984062,155.673046 C67.6584062,162.893046 72.8184062,160.503046 79.1484062,156.333046 L201.138406,75.1930457 C201.988406,74.6330457 202.718406,74.0130457 203.358406,73.3330457 L209.698406,87.4030457 C210.148406,88.3930457 211.328406,88.4930457 211.848406,87.5530457 C226.418406,61.1030457 258.808406,13.8530457 255.238406,6.7330457 Z" fill="url(#linearGradient-1)"></path>
                    <path d="M116.048406,205.673046 L116.708457,329.973046 C116.728406,338.313046 110.818406,340.313046 103.508406,345.113046 L70.6184062,365.473093 C63.3084062,365.493046 62.5184062,359.193046 62.5084062,350.853046 L62.3184062,207.113046" fill="url(#linearGradient-2)"></path>
                    <path d="M244.298406,119.683046 L244.298406,119.683046 C240.338406,111.803046 193.228406,115.203046 161.468406,112.953046 C160.498406,112.883046 159.878406,114.033046 160.318406,115.023046 L167.948406,131.963046 L4.99840617,239.283046 C-1.33159383,243.463046 0.138406175,250.293046 0.168406175,259.923046 L1.28840617,302.613046 C4.94840617,309.833046 10.1084062,307.443046 16.4384062,303.273046 L190.198406,188.143046 C191.048406,187.583046 191.778406,186.963046 192.418406,186.283046 L198.758406,200.353046 C199.208406,201.343046 200.388406,201.443046 200.908406,200.503046 C215.488406,174.053046 247.878406,126.803046 244.298406,119.683046 Z" fill="url(#linearGradient-3)"></path>
                </g>
                <g transform="translate(293.868406, 146.753046)" fill="#1D1D1B">
                    <polygon id="Path" points="28.82 28.26 28.82 56.52 91.34 56.52 91.34 82.54 28.82 82.54 28.82 133.26 -5.68434189e-14 133.26 -5.68434189e-14 2.24 99.76 2.24 99.76 28.26"></polygon>
                    <path d="M171.07,133.26 L171.07,122.4 C167.58,126.27 163.4,129.36 158.53,131.67 C153.66,133.98 147.74,135.13 140.75,135.13 C136.01,135.13 131.55,134.48 127.37,133.16 C123.19,131.85 119.54,129.88 116.42,127.26 C113.3,124.64 110.83,121.43 109.03,117.62 C107.22,113.82 106.32,109.42 106.32,104.42 L106.32,104.05 C106.32,98.56 107.32,93.82 109.31,89.82 C111.3,85.83 114.08,82.52 117.64,79.9 C121.2,77.28 125.44,75.31 130.37,74 C135.3,72.69 140.76,72.03 146.75,72.03 C151.87,72.03 156.33,72.4 160.13,73.15 C163.94,73.9 167.65,74.9 171.27,76.14 L171.27,74.46 C171.27,68.47 169.46,63.92 165.84,60.8 C162.22,57.68 156.86,56.12 149.74,56.12 C144.25,56.12 139.41,56.59 135.23,57.52 C131.05,58.46 126.65,59.8 122.03,61.54 L114.92,39.83 C120.41,37.46 126.15,35.52 132.14,34.03 C138.13,32.53 145.36,31.78 153.85,31.78 C169.45,31.78 180.8,35.59 187.91,43.2 C195.02,50.81 198.58,61.42 198.58,75.02 L198.58,133.23 L171.07,133.23 L171.07,133.26 Z M171.63,92.83 C169.13,91.71 166.36,90.8 163.3,90.12 C160.24,89.44 156.97,89.09 153.47,89.09 C147.35,89.09 142.55,90.28 139.06,92.65 C135.57,95.02 133.82,98.45 133.82,102.94 L133.82,103.31 C133.82,107.18 135.25,110.17 138.12,112.29 C140.99,114.41 144.73,115.47 149.35,115.47 C156.09,115.47 161.48,113.85 165.54,110.6 C169.59,107.36 171.62,103.11 171.62,97.87 L171.62,92.83 L171.63,92.83 Z" id="Shape"></path>
                    <path d="M287.3,130.36 C281.06,133.79 272.95,135.51 262.97,135.51 C255.48,135.51 248.53,134.14 242.1,131.39 C235.67,128.65 230.15,124.93 225.54,120.25 C220.92,115.57 217.3,110.08 214.68,103.78 C212.06,97.48 210.75,90.77 210.75,83.66 L210.75,83.29 C210.75,76.18 212.06,69.44 214.68,63.08 C217.3,56.72 220.92,51.17 225.54,46.42 C230.15,41.68 235.68,37.94 242.1,35.19 C248.53,32.45 255.61,31.07 263.34,31.07 C272.82,31.07 280.68,32.57 286.92,35.56 C293.16,38.55 298.65,42.67 303.39,47.91 L285.98,66.63 C282.73,63.26 279.4,60.58 275.97,58.58 C272.54,56.59 268.26,55.59 263.15,55.59 C259.53,55.59 256.25,56.31 253.32,57.74 C250.39,59.18 247.83,61.14 245.65,63.64 C243.47,66.14 241.78,69.04 240.6,72.34 C239.41,75.65 238.82,79.17 238.82,82.92 L238.82,83.29 C238.82,87.16 239.41,90.78 240.6,94.15 C241.78,97.52 243.5,100.45 245.75,102.95 C248,105.45 250.68,107.41 253.8,108.85 C256.92,110.29 260.41,111 264.28,111 C269.02,111 273.17,110.04 276.73,108.1 C280.29,106.17 283.81,103.58 287.31,100.33 L303.97,117.18 C299.09,122.53 293.54,126.93 287.3,130.36 Z" id="Path"></path>
                    <path d="M361.42,133.35 C357.8,134.41 353.62,134.94 348.88,134.94 C344.51,134.94 340.55,134.47 336.99,133.54 C333.43,132.6 330.37,130.95 327.82,128.58 C325.26,126.21 323.26,123.12 321.83,119.31 C320.39,115.51 319.68,110.67 319.68,104.8 L319.68,57.26 L307.7,57.26 L307.7,32.93 L319.68,32.93 L319.68,7.29 L348.13,7.29 L348.13,32.93 L371.71,32.93 L371.71,57.26 L348.13,57.26 L348.13,100.12 C348.13,106.61 351.19,109.85 357.3,109.85 C362.29,109.85 366.97,108.67 371.34,106.29 L371.34,129.12 C368.34,130.89 365.04,132.3 361.42,133.35 Z" id="Path"></path>
                    <path d="M484.76,103.59 C482.01,109.89 478.21,115.41 473.34,120.15 C468.47,124.89 462.73,128.64 456.12,131.38 C449.5,134.12 442.27,135.5 434.41,135.5 C426.67,135.5 419.5,134.16 412.89,131.48 C406.27,128.8 400.57,125.12 395.76,120.44 C390.96,115.76 387.18,110.27 384.44,103.97 C381.69,97.67 380.32,90.9 380.32,83.66 L380.32,83.29 C380.32,76.05 381.69,69.28 384.44,62.98 C387.18,56.68 390.99,51.16 395.86,46.42 C400.73,41.68 406.46,37.94 413.08,35.19 C419.69,32.45 426.93,31.07 434.79,31.07 C442.53,31.07 449.7,32.41 456.32,35.09 C462.93,37.77 468.64,41.45 473.45,46.13 C478.25,50.81 482.03,56.3 484.77,62.6 C487.51,68.9 488.89,75.67 488.89,82.91 L488.89,83.28 C488.88,90.52 487.51,97.29 484.76,103.59 Z M460.8,83.29 C460.8,79.55 460.17,76.02 458.93,72.71 C457.68,69.4 455.87,66.47 453.5,63.91 C451.13,61.35 448.32,59.32 445.08,57.83 C441.83,56.33 438.28,55.58 434.41,55.58 C430.29,55.58 426.64,56.3 423.46,57.73 C420.28,59.17 417.56,61.13 415.32,63.63 C413.07,66.13 411.36,69.03 410.17,72.33 C408.98,75.64 408.39,79.16 408.39,82.91 L408.39,83.28 C408.39,87.02 409.01,90.55 410.26,93.86 C411.51,97.17 413.32,100.1 415.69,102.66 C418.06,105.22 420.84,107.25 424.02,108.74 C427.2,110.24 430.79,110.99 434.78,110.99 C438.9,110.99 442.55,110.27 445.73,108.84 C448.91,107.41 451.63,105.44 453.87,102.94 C456.12,100.45 457.83,97.54 459.02,94.24 C460.2,90.94 460.8,87.41 460.8,83.66 L460.8,83.29 L460.8,83.29 Z" id="Shape"></path>
                    <path d="M560.94,60.82 C551.46,60.82 544,63.69 538.57,69.43 C533.14,75.17 530.43,84.09 530.43,96.2 L530.43,133.26 L501.98,133.26 L501.98,32.94 L530.43,32.94 L530.43,53.15 C533.3,46.29 537.23,40.8 542.22,36.68 C547.21,32.56 553.95,30.69 562.43,31.06 L562.43,60.82 L560.94,60.82 Z" id="Path"></path>
                    <polygon id="Path" points="604.55 28.26 604.55 56.52 667.07 56.52 667.07 82.54 604.55 82.54 604.55 133.26 575.73 133.26 575.73 2.24 675.49 2.24 675.49 28.26"></polygon>
                    <path d="M795.65,121.84 C792.03,124.71 788.07,127.17 783.76,129.23 C779.46,131.29 774.74,132.85 769.63,133.91 C764.51,134.97 758.77,135.5 752.41,135.5 C742.8,135.5 733.88,133.75 725.65,130.26 C717.41,126.77 710.3,121.99 704.31,115.94 C698.32,109.89 693.64,102.74 690.27,94.51 C686.9,86.27 685.22,77.48 685.22,68.12 L685.22,67.75 C685.22,58.39 686.9,49.63 690.27,41.45 C693.64,33.28 698.32,26.1 704.31,19.93 C710.3,13.75 717.47,8.89 725.83,5.33 C734.19,1.77 743.42,0 753.53,0 C759.64,0 765.23,0.5 770.28,1.5 C775.33,2.5 779.92,3.87 784.04,5.62 C788.16,7.37 791.96,9.49 795.46,11.98 C798.95,14.48 802.2,17.22 805.19,20.22 L786.85,41.37 C781.73,36.76 776.52,33.13 771.22,30.51 C765.91,27.89 759.96,26.58 753.34,26.58 C747.85,26.58 742.76,27.64 738.09,29.76 C733.41,31.88 729.39,34.81 726.02,38.56 C722.65,42.3 720.03,46.64 718.16,51.57 C716.29,56.5 715.35,61.77 715.35,67.39 L715.35,67.76 C715.35,73.38 716.29,78.68 718.16,83.67 C720.03,88.66 722.62,93.03 725.93,96.77 C729.23,100.51 733.23,103.48 737.91,105.66 C742.59,107.84 747.74,108.94 753.35,108.94 C760.84,108.94 767.17,107.57 772.35,104.82 C777.53,102.08 782.67,98.33 787.79,93.59 L806.13,112.12 C802.76,115.73 799.27,118.97 795.65,121.84 Z" id="Path"></path>
                </g>
            </g>
        </g>
    </g>
</svg>